<svg width="420" height="360" viewBox="0 0 420 360" fill="none" xmlns="http://www.w3.org/2000/svg">
<mask id="mask0" mask-type="alpha" maskUnits="userSpaceOnUse" x="0" y="0" width="420" height="360">
<circle cx="15.9763" cy="15.9763" r="15.9763" fill="#C4C4C4"/>
<circle cx="71.361" cy="15.9763" r="15.9763" fill="#C4C4C4"/>
<circle cx="126.745" cy="15.9763" r="15.9763" fill="#C4C4C4"/>
<circle cx="182.13" cy="15.9763" r="15.9763" fill="#C4C4C4"/>
<circle cx="237.515" cy="15.9763" r="15.9763" fill="#C4C4C4"/>
<circle cx="292.899" cy="15.9763" r="15.9763" fill="#C4C4C4"/>
<circle cx="348.284" cy="15.9763" r="15.9763" fill="#C4C4C4"/>
<circle cx="403.669" cy="15.9763" r="15.9763" fill="#C4C4C4"/>
<circle cx="15.9763" cy="62.8403" r="15.9763" fill="#C4C4C4"/>
<circle cx="71.361" cy="62.8403" r="15.9763" fill="#C4C4C4"/>
<circle cx="126.745" cy="62.8403" r="15.9763" fill="#C4C4C4"/>
<circle cx="182.13" cy="62.8403" r="15.9763" fill="#C4C4C4"/>
<circle cx="237.515" cy="62.8403" r="15.9763" fill="#C4C4C4"/>
<circle cx="292.899" cy="62.8403" r="15.9763" fill="#C4C4C4"/>
<circle cx="348.284" cy="62.8403" r="15.9763" fill="#C4C4C4"/>
<circle cx="403.669" cy="62.8403" r="15.9763" fill="#C4C4C4"/>
<circle cx="15.9763" cy="109.704" r="15.9763" fill="#C4C4C4"/>
<circle cx="71.361" cy="109.704" r="15.9763" fill="#C4C4C4"/>
<circle cx="126.745" cy="109.704" r="15.9763" fill="#C4C4C4"/>
<circle cx="182.13" cy="109.704" r="15.9763" fill="#C4C4C4"/>
<circle cx="237.515" cy="109.704" r="15.9763" fill="#C4C4C4"/>
<circle cx="292.899" cy="109.704" r="15.9763" fill="#C4C4C4"/>
<circle cx="348.284" cy="109.704" r="15.9763" fill="#C4C4C4"/>
<circle cx="403.669" cy="109.704" r="15.9763" fill="#C4C4C4"/>
<circle cx="15.9763" cy="156.568" r="15.9763" fill="#C4C4C4"/>
<circle cx="71.361" cy="156.568" r="15.9763" fill="#C4C4C4"/>
<circle cx="126.745" cy="156.568" r="15.9763" fill="#C4C4C4"/>
<circle cx="182.13" cy="156.568" r="15.9763" fill="#C4C4C4"/>
<circle cx="237.515" cy="156.568" r="15.9763" fill="#C4C4C4"/>
<circle cx="292.899" cy="156.568" r="15.9763" fill="#C4C4C4"/>
<circle cx="348.284" cy="156.568" r="15.9763" fill="#C4C4C4"/>
<circle cx="403.669" cy="156.568" r="15.9763" fill="#C4C4C4"/>
<circle cx="15.9763" cy="203.432" r="15.9763" fill="#C4C4C4"/>
<circle cx="71.361" cy="203.432" r="15.9763" fill="#C4C4C4"/>
<circle cx="126.745" cy="203.432" r="15.9763" fill="#C4C4C4"/>
<circle cx="182.13" cy="203.432" r="15.9763" fill="#C4C4C4"/>
<circle cx="237.515" cy="203.432" r="15.9763" fill="#C4C4C4"/>
<circle cx="292.899" cy="203.432" r="15.9763" fill="#C4C4C4"/>
<circle cx="348.284" cy="203.432" r="15.9763" fill="#C4C4C4"/>
<circle cx="403.669" cy="203.432" r="15.9763" fill="#C4C4C4"/>
<circle cx="15.9763" cy="250.296" r="15.9763" fill="#C4C4C4"/>
<circle cx="71.361" cy="250.296" r="15.9763" fill="#C4C4C4"/>
<circle cx="126.745" cy="250.296" r="15.9763" fill="#C4C4C4"/>
<circle cx="182.13" cy="250.296" r="15.9763" fill="#C4C4C4"/>
<circle cx="237.515" cy="250.296" r="15.9763" fill="#C4C4C4"/>
<circle cx="292.899" cy="250.296" r="15.9763" fill="#C4C4C4"/>
<circle cx="348.284" cy="250.296" r="15.9763" fill="#C4C4C4"/>
<circle cx="403.669" cy="250.296" r="15.9763" fill="#C4C4C4"/>
<circle cx="15.9763" cy="297.16" r="15.9763" fill="#C4C4C4"/>
<circle cx="71.361" cy="297.16" r="15.9763" fill="#C4C4C4"/>
<circle cx="126.745" cy="297.16" r="15.9763" fill="#C4C4C4"/>
<circle cx="182.13" cy="297.16" r="15.9763" fill="#C4C4C4"/>
<circle cx="237.515" cy="297.16" r="15.9763" fill="#C4C4C4"/>
<circle cx="292.899" cy="297.16" r="15.9763" fill="#C4C4C4"/>
<circle cx="348.284" cy="297.16" r="15.9763" fill="#C4C4C4"/>
<circle cx="403.669" cy="297.16" r="15.9763" fill="#C4C4C4"/>
<circle cx="15.9763" cy="344.024" r="15.9763" fill="#C4C4C4"/>
<circle cx="71.361" cy="344.024" r="15.9763" fill="#C4C4C4"/>
<circle cx="126.745" cy="344.024" r="15.9763" fill="#C4C4C4"/>
<circle cx="182.13" cy="344.024" r="15.9763" fill="#C4C4C4"/>
<circle cx="237.515" cy="344.024" r="15.9763" fill="#C4C4C4"/>
<circle cx="292.899" cy="344.024" r="15.9763" fill="#C4C4C4"/>
<circle cx="348.284" cy="344.024" r="15.9763" fill="#C4C4C4"/>
<circle cx="403.669" cy="344.024" r="15.9763" fill="#C4C4C4"/>
</mask>
<g mask="url(#mask0)">
<rect x="-188.851" y="-156.106" width="812.389" height="684.956" fill="url(#paint0_radial)"/>
</g>
<defs>
<radialGradient id="paint0_radial" cx="0" cy="0" r="1" gradientUnits="userSpaceOnUse" gradientTransform="translate(217.344 186.372) rotate(90) scale(342.478 406.195)">
<stop offset="0.265625" stop-color="#B24592"/>
<stop offset="1" stop-color="#FF5F6D"/>
</radialGradient>
</defs>
</svg>
