<svg width="1333" height="1423" viewBox="0 0 1333 1423" fill="none" xmlns="http://www.w3.org/2000/svg">
<path d="M329 537.5L665 360L786 0H529.5L329 537.5Z" fill="#64FFDA"/>
<path d="M311 1422.5H0L378.5 1222L311 1422.5Z" fill="#64FFDA"/>
<path d="M165 979L0 1422.5L378.5 1222L523 790.5L165 979Z" fill="#F15F79"/>
<path d="M329 537.5L165 979L523 790.5L665 360L329 537.5Z" fill="#B24592"/>
<path d="M716.5 514.5L665 360L786 0H801L1027 605.5L716.5 514.5Z" fill="#F15F79"/>
<path d="M843.5 892.5L819 818.5L1136.5 899.5L1333 1422.5L588 893L843.5 892.5Z" fill="#64FFDA"/>
<path d="M819 818.5L716.5 514.5L1027 605.5L1136.5 899.5L819 818.5Z" fill="#B24592"/>
<path d="M1020 1422.5C990 1330.5 940.7 1178 921.5 1130L1333 1422.5H1020Z" fill="#F15F79"/>
</svg>
